HIERARCHY
ROOT RootJoint
{
    OFFSET   0.000000   0.000000   0.000000
    CHANNELS 6 Xposition Yposition Zposition Xrotation Yrotation Zrotation
    JOINT pelvis_lowerback
    {
        OFFSET   0.000000   0.093605   0.000000
        CHANNELS 3 Xrotation Yrotation Zrotation
        JOINT lowerback_torso
        {
            OFFSET   0.000000   0.100000   0.000000
            CHANNELS 3 Xrotation Yrotation Zrotation
            JOINT torso_head
            {
                OFFSET   0.000000   0.282350   0.000000
                CHANNELS 3 Xrotation Yrotation Zrotation
                End Site
                {
                    OFFSET   0.000000   0.192650   0.000000
                }
            }
            JOINT rTorso_Clavicle
            {
                OFFSET  -0.001000   0.157500   0.000000
                CHANNELS 3 Xrotation Yrotation Zrotation
                JOINT rShoulder
                {
                    OFFSET  -0.117647   0.000000   0.000000
                    CHANNELS 3 Xrotation Yrotation Zrotation
                    JOINT rElbow
                    {
                        OFFSET  -0.245000   0.000000   0.000000
                        CHANNELS 3 Xrotation Yrotation Zrotation
                        JOINT rWrist
                        {
                            OFFSET  -0.240000   0.000000   0.000000
                            CHANNELS 3 Xrotation Yrotation Zrotation
                            End Site
                            {
                                OFFSET  -0.116353  -0.002500   0.000000
                            }
                        }
                    }
                }
            }
            JOINT lTorso_Clavicle
            {
                OFFSET   0.001000   0.157500   0.000000
                CHANNELS 3 Xrotation Yrotation Zrotation
                JOINT lShoulder
                {
                    OFFSET   0.117647   0.000000   0.000000
                    CHANNELS 3 Xrotation Yrotation Zrotation
                    JOINT lElbow
                    {
                        OFFSET   0.245000   0.000000   0.000000
                        CHANNELS 3 Xrotation Yrotation Zrotation
                        JOINT lWrist
                        {
                            OFFSET   0.240000   0.000000   0.000000
                            CHANNELS 3 Xrotation Yrotation Zrotation
                            End Site
                            {
                                OFFSET   0.116353  -0.002500   0.000000
                            }
                        }
                    }
                }
            }
        }
    }
    JOINT rHip
    {
        OFFSET  -0.100000  -0.051395   0.000000
        CHANNELS 3 Xrotation Yrotation Zrotation
        JOINT rKnee
        {
            OFFSET   0.000000  -0.410000   0.000000
            CHANNELS 3 Xrotation Yrotation Zrotation
            JOINT rAnkle
            {
                OFFSET   0.000000  -0.390000   0.000000
                CHANNELS 3 Xrotation Yrotation Zrotation
                JOINT rToeJoint
                {
                    OFFSET   0.000000  -0.050000   0.130000
                    CHANNELS 3 Xrotation Yrotation Zrotation
                    End Site
                    {
                        OFFSET  -0.010000   0.002000   0.060000
                    }
                }
            }
        }
    }
    JOINT lHip
    {
        OFFSET   0.100000  -0.051395   0.000000
        CHANNELS 3 Xrotation Yrotation Zrotation
        JOINT lKnee
        {
            OFFSET   0.000000  -0.410000   0.000000
            CHANNELS 3 Xrotation Yrotation Zrotation
            JOINT lAnkle
            {
                OFFSET   0.000000  -0.390000   0.000000
                CHANNELS 3 Xrotation Yrotation Zrotation
                JOINT lToeJoint
                {
                    OFFSET   0.000000  -0.050000   0.130000
                    CHANNELS 3 Xrotation Yrotation Zrotation
                    End Site
                    {
                        OFFSET   0.010000   0.002000   0.060000
                    }
                }
            }
        }
    }
}
MOTION
Frames: 14
Frame Time:   0.008333
 -2.376719   0.925631   3.975860   0.000000   0.000000   0.000000   0.000000   0.000000   0.000000   0.000000   0.000000   0.000000   0.000000   0.000000   0.000000   0.000000   0.000000   0.000000   0.000000   0.000000   0.000000   0.000000   0.000000   0.000000   0.000000   0.000000   0.000000   0.000000   0.000000   0.000000   0.000000   0.000000   0.000000   0.000000   0.000000   0.000000   0.000000   0.000000   0.000000   0.000000   0.000000   0.000000   0.000000   0.000000   0.000000   0.000000   0.000000   0.000000   0.000000   0.000000   0.000000   0.000000   0.000000   0.000000   0.000000   0.000000   0.000000   0.000000   0.000000   0.000000   0.000000   0.000000   0.000000
 -2.376753   0.925523   3.974320   1.064192  -0.034221  -0.038986  -1.012772   0.042065  -0.005077   0.253779  -0.052941   0.049253  -0.388902   0.128606   0.003745   0.649006  -0.745673  -0.480136   1.980259  -0.409577   2.204940   0.059022   3.709364  -0.096254  -0.157900  -0.805038  -1.630027   0.485557   0.590513   0.266567   2.350049   0.706446  -1.923376   0.056366  -3.704992   0.102738  -0.070679   0.701947   1.609871  -1.704780  -0.005844  -0.113837   0.854586   0.001143  -0.000305  -0.356209  -0.263840  -0.029930   0.057666   0.000092  -0.000153  -1.669561  -0.008201   0.221751   1.043344  -0.001660  -0.000352  -0.874668   0.328120   0.085441   0.235985  -0.000546   0.000592
 -2.376831   0.925415   3.972270   2.060569  -0.091294  -0.080649  -1.828688   0.084451  -0.015826   0.584431  -0.100392   0.096041  -0.741147   0.252485   0.011386   1.274993  -1.465543  -0.517659   3.956867  -0.698361   4.772057   0.146700   7.508029  -0.181856  -0.213972  -0.731152  -2.854737   0.964834   1.166377   0.095587   4.649314   1.283529  -4.166689   0.140933  -7.491208   0.192709  -0.034560   0.577673   2.833854  -3.434840  -0.003533  -0.358573   1.650119   0.002914  -0.000684  -0.687570  -0.514678  -0.061485   0.104652   0.000204  -0.000249  -3.299974  -0.027706   0.596795   2.055960  -0.004267  -0.000785  -1.692964   0.639601   0.172763   0.421697  -0.001103   0.000872
 -2.376957   0.925061   3.969955   2.982895  -0.147076  -0.116852  -2.493296   0.122119  -0.036819   0.973547  -0.144106   0.126444  -1.052713   0.367521   0.021418   1.861418  -2.098395  -0.253257   5.918157  -0.861425   7.575654   0.246735  11.318289  -0.254471  -0.252268  -0.442327  -3.619792   1.418194   1.666354  -0.388425   6.812797   1.707471  -6.519947   0.235534 -11.288383   0.265803   0.014571   0.254080   3.552860  -5.128793   0.012486  -0.716903   2.359012   0.004789  -0.000932  -0.998668  -0.750439  -0.093729   0.140075   0.000295  -0.000287  -4.843355  -0.064479   1.087482   2.991969  -0.007120  -0.001043  -2.457740   0.930963   0.259709   0.586474  -0.001639   0.001017
 -2.377098   0.924268   3.967531   3.843583  -0.191786  -0.150212  -3.043386   0.151547  -0.062074   1.393966  -0.189845   0.153830  -1.330994   0.474787   0.027256   2.414998  -2.652109   0.250642   7.766983  -0.893857  10.407006   0.346931  15.135531  -0.312811  -0.285663  -0.085184  -3.943551   1.846735   2.091783  -1.076305   8.846321   1.983953  -8.900292   0.330159 -15.094583   0.324939   0.062973  -0.142959   3.865958  -6.772773   0.044575  -1.167160   2.991968   0.006524  -0.001034  -1.290800  -0.971664  -0.126164   0.165655   0.000351  -0.000287  -6.296913  -0.118466   1.667358   3.855380  -0.009815  -0.001079  -3.172946   1.203307   0.345558   0.731724  -0.002090   0.001080
 -2.377234   0.922889   3.965116   4.651442  -0.223379  -0.181969  -3.506913   0.171976  -0.086223   1.825584  -0.239347   0.182813  -1.581052   0.574889   0.030386   2.937815  -3.139412   0.909183   9.492203  -0.813219  13.182886   0.440768  18.958254  -0.358933  -0.320868   0.299156  -3.938761   2.251206   2.454058  -1.888428  10.754318   2.130350 -11.250288   0.419073 -18.908693   0.372654   0.107276  -0.578058   3.881761  -8.357310   0.093519  -1.690544   3.560393   0.007996  -0.001029  -1.564892  -1.179070  -0.158450   0.183790   0.000373  -0.000265  -7.659673  -0.188591   2.313437   4.654008  -0.012142  -0.000941  -3.841719   1.457700   0.429730   0.860349  -0.002434   0.001091
 -2.377027   0.922454   3.962820   5.394017  -0.026190  -0.105806  -3.889302   0.103030  -0.162595   2.264109  -0.358827   0.173765  -1.806789   0.665950   0.027589   3.434582  -3.590016   1.756439  11.100322  -0.649116  15.908286   0.530079  22.776517  -0.396128  -0.363073   0.647287  -3.724717   2.626020   2.729907  -2.880271  12.536778   2.137123 -13.578140   0.504550 -22.733583   0.411494   0.148568  -1.038945   3.698236  -9.810373   0.150334  -2.420240   4.071089   0.009236  -0.000123  -1.817771  -1.376063  -0.191588   0.229850   0.000561  -0.000216  -9.072719  -0.067338   2.249616   5.546254  -0.009810   0.002048  -4.200124   1.855839   0.220760   1.002188  -0.001713   0.001785
 -2.376925   0.922124   3.961291   5.772110   0.022847  -0.097588  -3.993105   0.140042  -0.140826   2.726652  -0.353941   0.216473  -2.074138   0.724747  -0.015772   3.836010  -4.143413   2.321002  12.871162  -0.372697  18.295630   0.595993  26.638879  -0.430936  -0.369624   1.226730  -2.821163   2.987160   3.112504  -3.508778  14.476838   1.744214 -15.897939   0.573674 -26.595873   0.450493   0.201805  -1.758399   2.964556 -10.974323   0.089685  -3.045994   5.229835   0.013496  -0.001290  -2.129081  -1.690122  -0.093190   0.131816   0.000013   0.000162  -9.995619   0.095315   2.262664   6.377024  -0.007855   0.003468  -4.573816   2.314267   0.232264   0.983814  -0.001367   0.001317
 -2.376988   0.921814   3.960370   6.080238   0.047041  -0.131378  -4.136718   0.187935  -0.073774   3.157552  -0.331211   0.280397  -2.316651   0.781754  -0.047278   4.219252  -4.701777   2.722742  14.521524  -0.091133  20.433824   0.641541  30.493957  -0.452469  -0.374812   1.794812  -1.937708   3.336113   3.510374  -4.010632  16.282093   1.335745 -18.005624   0.624457 -30.459156   0.475391   0.255955  -2.513793   2.173578 -11.982416   0.026206  -3.608365   6.435449   0.016878  -0.002701  -2.410923  -1.986949  -0.002866   0.060948  -0.000301   0.000380 -10.794678   0.237480   2.330989   7.195499  -0.006346   0.004277  -4.946514   2.737455   0.256694   0.964598  -0.001087   0.000949
 -2.377223   0.921496   3.959905   6.357229   0.053798  -0.185852  -4.319671   0.241308   0.010034   3.533240  -0.300110   0.352276  -2.546077   0.835480  -0.070439   4.584710  -5.261985   3.016856  16.059569   0.186887  22.369021   0.672024  34.337613  -0.464382  -0.389591   2.283413  -1.162591   3.672447   3.925674  -4.415439  17.961185   0.936327 -19.923114   0.660773 -34.310868   0.489764   0.295415  -3.190842   1.447512 -12.872072  -0.027754  -4.130443   7.597370   0.019125  -0.003963  -2.671571  -2.264436   0.080191   0.001460  -0.000497   0.000509 -11.516287   0.365240   2.433298   7.988284  -0.005201   0.004674  -5.304528   3.129999   0.286152   0.947678  -0.000860   0.000676
 -2.377630   0.921162   3.959775   6.610645   0.044871  -0.251188  -4.529204   0.298755   0.098900   3.859772  -0.262456   0.425513  -2.765530   0.885777  -0.088991   4.934226  -5.818048   3.235175  17.494388   0.459721  24.132282   0.691671  38.170461  -0.470338  -0.412111   2.689579  -0.482630   3.997862   4.352553  -4.743750  19.524783   0.550869 -21.673620   0.686346 -38.149260   0.497496   0.321566  -3.770707   0.793541 -13.666057  -0.072728  -4.621490   8.699915   0.020411  -0.005029  -2.913838  -2.523697   0.156525  -0.051508  -0.000622   0.000586 -12.174419   0.480642   2.559383   8.750657  -0.004347   0.004772  -5.644671   3.494600   0.318694   0.933003  -0.000679   0.000476
 -2.378212   0.920814   3.959904   6.843994   0.018859  -0.321975  -4.756479   0.357259   0.187757   4.141567  -0.222175   0.495978  -2.973850   0.933075  -0.104993   5.262827  -6.350983   3.399345  18.828184   0.739306  25.745811   0.698729  41.875522  -0.469574  -0.437400   3.084981   0.123898   4.304654   4.766708  -5.016338  20.974518   0.161244 -23.278068   0.694059 -41.737528   0.494603   0.342279  -4.373298   0.200027 -14.381078  -0.109823  -5.084825   9.740070   0.020931  -0.005913  -3.139361  -2.765911   0.226679  -0.099355  -0.000695   0.000629 -12.776083   0.585049   2.704003   9.479630  -0.003727   0.004642  -5.967206   3.833422   0.353322   0.920280  -0.000533   0.000330
 -2.378961   0.920450   3.960235   7.059748  -0.020245  -0.395678  -4.994315   0.417425   0.273172   4.384633  -0.177600   0.562749  -3.171981   0.977023  -0.118843   5.568187  -6.853105   3.524298  20.064866   1.028577  27.226924   0.691731  45.338741  -0.461448  -0.464479   3.503127   0.672091   4.594460   5.165010  -5.243672  22.319836  -0.224882 -24.750136   0.687925 -45.083982   0.484200   0.356093  -4.942854  -0.342184 -15.028656  -0.140528  -5.522760  10.718159   0.020864  -0.006593  -3.349483  -2.992226   0.291168  -0.142930  -0.000731   0.000645 -13.327980   0.678706   2.863563  10.175139  -0.003287   0.004371  -6.272006   4.148116   0.389583   0.909073  -0.000417   0.000223
 -2.379789   0.920055   3.960674   7.183685  -0.078276  -0.375051  -4.989647   0.470460   0.274592   4.456465  -0.116410   0.589949  -3.313639   1.032050  -0.072273   5.725325  -7.501540   3.471291  21.092539   1.290208  28.496765   0.665275  48.740804  -0.438285  -0.599398   3.900112   1.547153   4.857277   5.752362  -5.141024  23.572112  -0.642058 -26.144701   0.675156 -48.469116   0.471774   0.270265  -5.514892  -1.100969 -15.514321  -0.283154  -5.977679  11.625728   0.019713  -0.008125  -3.696142  -3.137654   0.520100  -0.137020  -0.000574   0.000493 -13.636617   0.794558   2.914674  10.583170  -0.002752   0.003781  -6.367239   4.421107   0.616595   1.012887  -0.000588   0.000492
